<svg width="151" height="36" viewBox="0 0 151 36" fill="none" xmlns="http://www.w3.org/2000/svg">
<path d="M0 0H151V36H0V0Z" fill="#0B0A0A"/>
<path d="M28.8734 11.8842H35.4254V13.6482H33.0734V19.9202H35.4254V21.6842H28.8734V19.9202H31.2254V13.6482H28.8734V11.8842Z" fill="white"/>
<path d="M39.2937 21.6842H37.5297V14.7402H39.2937V15.7762H39.5457C39.7044 15.3842 39.961 15.0809 40.3157 14.8662C40.6704 14.6515 41.0857 14.5442 41.5617 14.5442C41.8977 14.5442 42.2104 14.6002 42.4997 14.7122C42.7984 14.8149 43.0597 14.9782 43.2837 15.2022C43.5077 15.4262 43.6804 15.7109 43.8017 16.0562C43.9324 16.4015 43.9977 16.8122 43.9977 17.2882V21.6842H42.2337V17.7362C42.2337 17.2415 42.1124 16.8542 41.8697 16.5742C41.6364 16.2849 41.2957 16.1402 40.8477 16.1402C40.325 16.1402 39.933 16.3175 39.6717 16.6722C39.4197 17.0175 39.2937 17.4842 39.2937 18.0722V21.6842Z" fill="white"/>
<path d="M45.906 14.7402H47.964V11.8842H49.728V14.7402H52.234V16.4202H49.728V19.5842C49.728 19.8642 49.854 20.0042 50.106 20.0042H51.982V21.6842H49.042C48.7246 21.6842 48.4633 21.5815 48.258 21.3762C48.062 21.1709 47.964 20.9095 47.964 20.5922V16.4202H45.906V14.7402Z" fill="white"/>
<path d="M56.2282 18.7862C56.2376 18.9915 56.2842 19.1829 56.3682 19.3602C56.4616 19.5282 56.5829 19.6775 56.7322 19.8082C56.8909 19.9295 57.0682 20.0275 57.2642 20.1022C57.4696 20.1675 57.6842 20.2002 57.9082 20.2002C58.3469 20.2002 58.6829 20.1255 58.9162 19.9762C59.1496 19.8175 59.3176 19.6309 59.4202 19.4162L60.9322 20.2562C60.8482 20.4335 60.7316 20.6202 60.5822 20.8162C60.4329 21.0029 60.2369 21.1755 59.9942 21.3342C59.7609 21.4929 59.4716 21.6235 59.1262 21.7262C58.7902 21.8289 58.3936 21.8802 57.9362 21.8802C57.4136 21.8802 56.9376 21.7962 56.5082 21.6282C56.0789 21.4602 55.7056 21.2175 55.3882 20.9002C55.0802 20.5829 54.8376 20.1955 54.6602 19.7382C54.4922 19.2809 54.4082 18.7629 54.4082 18.1842V18.1002C54.4082 17.5682 54.4969 17.0829 54.6742 16.6442C54.8609 16.2055 55.1129 15.8322 55.4302 15.5242C55.7476 15.2162 56.1162 14.9782 56.5362 14.8102C56.9656 14.6329 57.4229 14.5442 57.9082 14.5442C58.5056 14.5442 59.0189 14.6515 59.4482 14.8662C59.8776 15.0715 60.2322 15.3375 60.5122 15.6642C60.7922 15.9815 60.9976 16.3362 61.1282 16.7282C61.2589 17.1109 61.3242 17.4842 61.3242 17.8482V18.7862H56.2282ZM57.8942 16.1402C57.4462 16.1402 57.0822 16.2569 56.8022 16.4902C56.5222 16.7142 56.3402 16.9755 56.2562 17.2742H59.5322C59.4762 16.9475 59.2989 16.6769 59.0002 16.4622C58.7109 16.2475 58.3422 16.1402 57.8942 16.1402Z" fill="white"/>
<path d="M62.9105 14.7402H65.8505V15.7482H66.1025C66.2332 15.3655 66.4525 15.0715 66.7605 14.8662C67.0778 14.6515 67.4558 14.5442 67.8945 14.5442C68.5852 14.5442 69.1405 14.7635 69.5605 15.2022C69.9805 15.6315 70.1905 16.2895 70.1905 17.1762V17.4842L68.3705 17.6522V17.4562C68.3705 17.0735 68.2725 16.7702 68.0765 16.5462C67.8805 16.3129 67.5865 16.1962 67.1945 16.1962C66.8025 16.1962 66.4945 16.3315 66.2705 16.6022C66.0465 16.8729 65.9345 17.2602 65.9345 17.7642V20.0042H67.5305V21.6842H62.7425V20.0042H64.1705V16.4202H62.9105V14.7402Z" fill="white"/>
<path d="M71.6228 14.7402H73.6808V11.8842H75.4448V14.7402H77.9508V16.4202H75.4448V19.5842C75.4448 19.8642 75.5708 20.0042 75.8228 20.0042H77.6988V21.6842H74.7588C74.4414 21.6842 74.1801 21.5815 73.9748 21.3762C73.7788 21.1709 73.6808 20.9095 73.6808 20.5922V16.4202H71.6228V14.7402Z" fill="white"/>
<path d="M80.055 14.7402H82.995V15.7482H83.247C83.3777 15.3655 83.597 15.0715 83.905 14.8662C84.2224 14.6515 84.6004 14.5442 85.039 14.5442C85.7297 14.5442 86.285 14.7635 86.705 15.2022C87.125 15.6315 87.335 16.2895 87.335 17.1762V17.4842L85.515 17.6522V17.4562C85.515 17.0735 85.417 16.7702 85.221 16.5462C85.025 16.3129 84.731 16.1962 84.339 16.1962C83.947 16.1962 83.639 16.3315 83.415 16.6022C83.191 16.8729 83.079 17.2602 83.079 17.7642V20.0042H84.675V21.6842H79.887V20.0042H81.315V16.4202H80.055V14.7402Z" fill="white"/>
<path d="M93.4573 20.6762C93.2706 21.1149 93.0093 21.4275 92.6733 21.6142C92.3373 21.7915 91.9453 21.8802 91.4973 21.8802C91.0773 21.8802 90.6806 21.8009 90.3073 21.6422C89.9433 21.4835 89.6213 21.2502 89.3413 20.9422C89.0613 20.6342 88.8373 20.2609 88.6693 19.8222C88.5106 19.3835 88.4313 18.8842 88.4313 18.3242V18.1002C88.4313 17.5495 88.5106 17.0549 88.6693 16.6162C88.828 16.1775 89.0426 15.8042 89.3133 15.4962C89.584 15.1882 89.8966 14.9549 90.2513 14.7962C90.6153 14.6282 91.0026 14.5442 91.4133 14.5442C91.908 14.5442 92.3046 14.6282 92.6033 14.7962C92.9113 14.9642 93.154 15.2255 93.3313 15.5802H93.5833V14.7402H95.3473V19.5842C95.3473 19.8642 95.4733 20.0042 95.7253 20.0042H95.9913V21.6842H94.7873C94.47 21.6842 94.2086 21.5909 94.0033 21.4042C93.8073 21.2175 93.7093 20.9749 93.7093 20.6762H93.4573ZM91.8893 20.2002C92.4026 20.2002 92.8133 20.0322 93.1213 19.6962C93.4293 19.3509 93.5833 18.8842 93.5833 18.2962V18.1282C93.5833 17.5402 93.4293 17.0782 93.1213 16.7422C92.8133 16.3969 92.4026 16.2242 91.8893 16.2242C91.376 16.2242 90.9653 16.3969 90.6573 16.7422C90.3493 17.0782 90.1953 17.5402 90.1953 18.1282V18.2962C90.1953 18.8842 90.3493 19.3509 90.6573 19.6962C90.9653 20.0322 91.376 20.2002 91.8893 20.2002Z" fill="white"/>
<path d="M97.0456 14.7402H98.9496L100.588 20.8442H100.84L102.478 14.7402H104.382L102.394 21.6842H99.0336L97.0456 14.7402Z" fill="white"/>
<path d="M107.662 18.7862C107.671 18.9915 107.718 19.1829 107.802 19.3602C107.895 19.5282 108.017 19.6775 108.166 19.8082C108.325 19.9295 108.502 20.0275 108.698 20.1022C108.903 20.1675 109.118 20.2002 109.342 20.2002C109.781 20.2002 110.117 20.1255 110.35 19.9762C110.583 19.8175 110.751 19.6309 110.854 19.4162L112.366 20.2562C112.282 20.4335 112.165 20.6202 112.016 20.8162C111.867 21.0029 111.671 21.1755 111.428 21.3342C111.195 21.4929 110.905 21.6235 110.56 21.7262C110.224 21.8289 109.827 21.8802 109.37 21.8802C108.847 21.8802 108.371 21.7962 107.942 21.6282C107.513 21.4602 107.139 21.2175 106.822 20.9002C106.514 20.5829 106.271 20.1955 106.094 19.7382C105.926 19.2809 105.842 18.7629 105.842 18.1842V18.1002C105.842 17.5682 105.931 17.0829 106.108 16.6442C106.295 16.2055 106.547 15.8322 106.864 15.5242C107.181 15.2162 107.55 14.9782 107.97 14.8102C108.399 14.6329 108.857 14.5442 109.342 14.5442C109.939 14.5442 110.453 14.6515 110.882 14.8662C111.311 15.0715 111.666 15.3375 111.946 15.6642C112.226 15.9815 112.431 16.3362 112.562 16.7282C112.693 17.1109 112.758 17.4842 112.758 17.8482V18.7862H107.662ZM109.328 16.1402C108.88 16.1402 108.516 16.2569 108.236 16.4902C107.956 16.7142 107.774 16.9755 107.69 17.2742H110.966C110.91 16.9475 110.733 16.6769 110.434 16.4622C110.145 16.2475 109.776 16.1402 109.328 16.1402Z" fill="white"/>
<path d="M114.638 20.0042H117.074V13.5642H114.722V11.8842H118.838V20.0042H121.106V21.6842H114.638V20.0042Z" fill="white"/>
</svg>
